# xmcd
#
# Track frame offsets:
#	150
#	17699
#	36238
#	50328
#	68371
#	82451
#	99936
#	116483
#
# Disc length: 1714 seconds
#
# Revision: 1
# Processed by: cddbd v1.5.2PL0 Copyright (c) Steve Scherf et al.
# Submitted via: audiograbber 1.83.01
#
DISCID=5e06b008
DTITLE=Jackson Taylor and The Sinners - Which Way Is Up
DYEAR=1900
DGENRE=Country
TTITLE0=Another Bottle Goes Down
TTITLE1=Sad Bastard Music
TTITLE2=Foolin' Around
TTITLE3=Everybody Needs An Outlaw Ft Lucky Tubb
TTITLE4=Two More Bottles Of Wine
TTITLE5=Which Way Is Up
TTITLE6=Every Other Weekend
TTITLE7=He's A Whore
EXTD=
EXTT0=
EXTT1=
EXTT2=
EXTT3=
EXTT4=
EXTT5=
EXTT6=
EXTT7=
PLAYORDER=
